PathFileType	4	(X/Y/Z)	C:/Users/opensim2020/Desktop/walking_exp_matlab/subject01_walking14_straight_04.trc																																																																																																																												
DataRate	CameraRate	NumFrames	NumMarkers	Units	OrigDataRate	OrigDataStartFrame	OrigNumFrames																																																																																																																								
100	100	5	42	mm	100	2074	89																																																																																																																								
Frame#	Time	LFHD			RFHD			LBHD			RBHD			C7			T10			CLAV			STRN			RBAK			LSHO			LUPA			LELB			LFRM			LWRA			LWRB			LFIN			RSHO			RUPA			RELB			RFRM			RWRA			RWRB			RFIN			LASI			RASI			LPSI			RPSI			LTHI			LKNE			LTIB			LANK			LHEE			LTOE			RTHI			RKNE			RTIB			RANK			RHEE			RTOE			*39			*40			*41		
		X1	Y1	Z1	X2	Y2	Z2	X3	Y3	Z3	X4	Y4	Z4	X5	Y5	Z5	X6	Y6	Z6	X7	Y7	Z7	X8	Y8	Z8	X9	Y9	Z9	X10	Y10	Z10	X11	Y11	Z11	X12	Y12	Z12	X13	Y13	Z13	X14	Y14	Z14	X15	Y15	Z15	X16	Y16	Z16	X17	Y17	Z17	X18	Y18	Z18	X19	Y19	Z19	X20	Y20	Z20	X21	Y21	Z21	X22	Y22	Z22	X23	Y23	Z23	X24	Y24	Z24	X25	Y25	Z25	X26	Y26	Z26	X27	Y27	Z27	X28	Y28	Z28	X29	Y29	Z29	X30	Y30	Z30	X31	Y31	Z31	X32	Y32	Z32	X33	Y33	Z33	X34	Y34	Z34	X35	Y35	Z35	X36	Y36	Z36	X37	Y37	Z37	X38	Y38	Z38	X39	Y39	Z39	X40	Y40	Z40	X41	Y41	Z41	X42	Y42	Z42
																																																																																																																															
1	0	-636.89545	1654.23901	985.52185	-600.21808	1661.49915	1094.06628	-752.40674	1625.23743	1019.59247	-717.5517	1632.31934	1135.11353	-800.70313	1431.33826	1041.5083	-858.97351	1140.69238	1056.99475	-662.41833	1354.75293	1070.86597	-632.7782	1197.84485	1081.94666	-880.78448	1246.38831	1111.49341	-691.13959	1388.07031	903.91254	-695.88519	1207.32532	815.09955	-689.68024	1052.74817	807.60339	-588.17383	989.0199	818.15784	-463.66898	963.42377	870.92261	-493.75537	917.48389	848.37817	-411.35983	903.59528	854.19183	-752.40527	1405.19897	1202.43652	-870.78259	1227.94495	1289.18811	-889.30859	1107.03003	1302.16614	-906.50372	992.92358	1342.84302	-869.58374	853.64154	1343.0553	-914.71747	873.21344	1374.61267	-905.50671	786.7229	1385.34583	-682.94568	929.02039	977.18164	-700.56189	937.5592	1194.17578	-871.64917	941.5896	1018.86627	-880.20392	941.44067	1162.86597	-770.02704	596.7782	936.17847	-812.52698	466.15497	956.77032	-905.00739	298.45047	951.59503	-985.65137	95.05943	1013.23608	-1040.94409	78.80176	1061.52539	-848.02765	37.87421	1027.61755	-662.94806	617.43146	1269.23242	-599.28296	473.2486	1254.48035	-617.45483	299.383	1273.48242	-585.10168	88.70691	1242.63843	-616.95782	38.95396	1188.94287	-442.68723	76.02741	1258.15735	-611.89691	1695.58521	1071.85107	-1973.11084	1023.58252	3102.01001	-2012.50476	1022.13806	3140.79175
2	0.01	-624.51477	1653.07263	988.02881	-587.49799	1660.23987	1096.50903	-739.92029	1623.94214	1022.47815	-704.71161	1630.98547	1137.86121	-788.06525	1429.99011	1044.35938	-846.15295	1139.2334	1059.9425	-649.71295	1353.49768	1073.33765	-619.80481	1196.72974	1083.88831	-867.63867	1244.58594	1114.13391	-678.69904	1387.31458	906.55591	-682.51996	1207.04504	817.18384	-675.40613	1052.58203	808.7572	-572.44397	991.36462	819.73901	-447.69568	969.02655	873.04944	-476.24448	922.27728	850.36871	-393.40213	910.74896	856.4328	-739.51013	1403.77441	1205.14697	-859.01624	1226.97229	1291.41858	-878.06598	1106.31018	1304.86011	-896.4389	992.5094	1345.60803	-860.98737	852.815	1345.98352	-905.93018	872.74933	1377.12842	-897.85895	786.17871	1387.87732	-670.70941	927.8504	978.07428	-685.88324	935.82214	1195.12109	-859.07294	940.72638	1022.22369	-866.02094	940.47467	1166.29138	-761.91925	596.58289	936.50519	-805.38062	466.25723	956.86829	-900.1947	299.79056	951.76288	-984.42548	97.57606	1012.60132	-1039.91858	82.39127	1060.80029	-848.0401	37.88839	1027.52893	-652.88385	614.09283	1271.50793	-585.82538	471.65985	1254.5802	-595.66687	298.1373	1274.828	-552.81775	88.72741	1244.37207	-583.33472	37.06252	1191.55042	-409.4281	82.72109	1257.24231	-599.16125	1694.50793	1074.39111	-1973.1073	1023.52179	3102.03198	-2012.5321	1022.14642	3140.80737
3	0.02	-612.20331	1651.77307	990.74445	-574.75995	1658.94531	1099.1123	-727.22003	1622.48181	1025.49805	-691.87933	1629.61304	1140.80408	-775.46564	1428.6311	1047.35059	-833.13129	1137.69751	1062.91333	-636.73975	1352.38635	1076.02051	-606.79181	1195.53564	1085.81396	-854.45917	1242.68945	1116.98022	-666.32086	1386.57019	909.25543	-669.12726	1206.73083	819.38129	-660.67859	1052.45593	810.26215	-556.99365	993.30951	821.31793	-432.22308	974.06097	875.09021	-459.51428	926.60309	852.05542	-376.4129	917.36572	858.7005	-726.52039	1402.17993	1208.34387	-847.09869	1225.96045	1293.76624	-866.51636	1105.46667	1307.7229	-885.91193	991.91046	1348.44666	-851.67554	851.98431	1349.06592	-896.90875	872.35541	1380.07788	-889.45502	785.54437	1390.75745	-658.21228	926.80859	979.2052	-671.08856	934.00586	1196.08936	-846.28333	939.9303	1025.72388	-851.73181	939.54224	1169.89575	-753.09222	596.34912	936.96753	-797.53271	466.14053	957.26398	-894.93628	301.19806	951.90137	-982.7085	100.14315	1012.24475	-1038.65173	86.24182	1060.04431	-847.84753	37.88223	1027.42883	-643.0412	610.95398	1274.85974	-572.20636	470.38626	1254.50598	-575.04517	297.43512	1275.78137	-523.95062	89.42869	1245.62329	-552.77991	36.4149	1193.2821	-380.11368	88.74387	1256.29358	-586.58673	1693.16309	1076.90027	-1973.19556	1023.42816	3101.93823	-2012.56689	1022.14911	3140.71289
4	0.03	-599.81702	1650.62683	993.60376	-562.06812	1657.646	1101.78516	-714.91785	1621.29419	1028.73694	-679.01355	1628.19849	1143.89404	-762.867	1427.25671	1050.46863	-819.99652	1136.14429	1065.92834	-624.02594	1351.13257	1078.66931	-593.71039	1194.36609	1087.79968	-841.30322	1240.77795	1120.00525	-653.70898	1385.91528	912.11053	-655.8913	1206.47375	821.67737	-646.9494	1052.65344	811.49213	-541.68201	995.59113	822.74445	-417.23184	978.52301	877.07275	-443.42685	930.55896	853.62195	-360.21078	923.44647	860.4939	-713.53326	1400.45251	1211.19666	-834.92407	1224.80994	1296.23621	-854.65881	1104.43909	1310.68079	-874.95856	991.12555	1351.48206	-841.68268	851.08368	1352.28491	-886.82709	871.61951	1382.98682	-880.32794	784.80682	1393.77795	-646.125	925.5542	979.74762	-656.19421	932.22687	1197.24377	-833.22748	939.10925	1029.22327	-837.21393	938.55341	1173.62805	-743.52264	596.10144	937.61041	-789.10693	465.96579	957.71161	-889.3739	302.81448	952.03003	-981.17554	103.29008	1011.41656	-1037.08594	90.38502	1059.3219	-847.74438	37.82886	1027.24207	-632.17255	608.19702	1277.50024	-558.6344	469.09955	1254.57422	-555.82227	296.70715	1276.18872	-498.53238	90.17963	1246.03296	-526.16602	36.10128	1193.90881	-354.23984	93.24006	1255.33093	-573.96729	1691.87134	1079.69836	-1973.21863	1023.55408	3101.9519	-2012.58484	1022.26764	3140.61475
5	0.04	-587.54517	1649.51379	996.44727	-549.31592	1656.40601	1104.6272	-702.48584	1620.10205	1032.11206	-666.10883	1626.83557	1147.1615	-750.24548	1425.91003	1053.63708	-806.67993	1134.56116	1068.92383	-611.31128	1349.93494	1081.13342	-580.50702	1193.32373	1089.81897	-828.07538	1238.92639	1123.17651	-641.57446	1385.08887	914.92639	-642.8269	1206.2981	823.94629	-633.38367	1052.63379	812.71466	-527.49805	997.21979	824.27332	-402.8147	982.27228	878.94214	-427.89029	934.04602	855.12231	-344.60361	928.56427	862.37872	-700.50024	1398.90356	1214.44226	-822.46558	1223.50659	1298.83752	-842.31366	1103.15198	1313.57104	-863.53009	990.19733	1354.53137	-831.47675	849.92688	1355.75378	-876.32526	870.83716	1386.33594	-870.45441	783.94434	1396.9917	-633.39746	924.36249	980.83722	-641.22009	930.35229	1198.41272	-820.03119	938.3031	1032.73413	-822.55603	937.53394	1177.38293	-733.15173	595.60065	938.53265	-779.70105	465.76544	958.20575	-883.30823	304.46838	952.2038	-979.00348	106.57513	1010.77148	-1035.3031	95.21224	1058.36353	-847.63348	37.85576	1027.16919	-619.73645	606.07947	1279.53955	-545.03748	468.21762	1254.88293	-538.32306	295.73813	1276.10815	-476.7374	90.24307	1245.38696	-503.50763	35.83249	1193.33533	-332.06015	95.8154	1254.21484	-561.38959	1690.6604	1082.6615	-1973.23291	1023.81641	3101.93872	-2012.51807	1022.07922	3140.68823
